<?xml version="1.0" encoding="utf-8"?>
<!-- Generator: Adobe Illustrator 18.1.1, SVG Export Plug-In . SVG Version: 6.00 Build 0)  -->
<svg version="1.1" xmlns="http://www.w3.org/2000/svg" xmlns:xlink="http://www.w3.org/1999/xlink" x="0px" y="0px"
	 viewBox="0 0 90 45" enable-background="new 0 0 90 45" xml:space="preserve">
<g id="Camada_2">
</g>
<g id="Camada_1">
	<g id="Camada_1_1_" display="none">
		<rect display="inline" fill="#010002" width="90" height="45"/>
	</g>
	<g id="Camada_4">
		<g>
			<path fill="#FFFFFF" d="M4.7,26c0,1.7,0.5,2.9,1.3,3.7c0.8,0.8,2.1,1.2,3.7,1.2c1.4,0,2.8-0.3,4.1-0.8c0.2,0.3,0.3,0.7,0.4,1.1
				c0.1,0.4,0.2,0.9,0.2,1.3c-0.7,0.3-1.4,0.5-2.2,0.6s-1.7,0.2-2.6,0.2c-1.4,0-2.6-0.2-3.6-0.6c-1-0.4-1.8-0.9-2.5-1.7
				c-0.7-0.7-1.1-1.6-1.4-2.5s-0.5-2.1-0.5-3.2s0.1-2.2,0.4-3.2s0.7-1.9,1.3-2.6s1.4-1.3,2.3-1.8c0.9-0.4,2-0.7,3.3-0.7
				c1.1,0,2,0.2,2.8,0.5c0.8,0.4,1.5,0.9,2,1.5s1,1.4,1.2,2.3c0.3,0.9,0.4,1.8,0.4,2.9c0,0.3,0,0.6,0,0.9s0,0.6-0.1,0.8H4.7V26z
				 M12.4,23.7c0-0.6-0.1-1.1-0.2-1.6s-0.4-1-0.7-1.3c-0.3-0.4-0.7-0.7-1.1-0.9c-0.5-0.2-1-0.3-1.6-0.3c-1.2,0-2.2,0.4-2.8,1.1
				c-0.7,0.7-1.1,1.8-1.2,3.1h7.6V23.7z"/>
		</g>
		<g>
			<path fill="#FFFFFF" d="M17,8.7c1-0.1,2.1-0.2,3.1-0.2c1.1-0.1,2.1-0.1,3.2-0.1s2.3,0.1,3.4,0.3C27.9,9,29,9.4,29.9,10
				s1.7,1.5,2.3,2.6c0.6,1.1,0.9,2.5,0.9,4.3c0,1.8-0.3,3.2-0.9,4.3c-0.6,1.1-1.3,1.9-2.3,2.6C29,24.3,28,24.7,26.8,25
				s-2.2,0.3-3.3,0.3c-0.3,0-0.6,0-0.8,0c-0.3,0-0.5,0-0.7-0.1V33c-0.4,0.1-0.8,0.1-1.2,0.1c-0.4,0-0.8,0-1.2,0c-0.4,0-0.8,0-1.2,0
				c-0.4,0-0.9-0.1-1.3-0.1L17,8.7L17,8.7z M21.9,21.2c0.3,0,0.5,0.1,0.8,0.1c0.2,0,0.5,0,0.9,0c0.6,0,1.1-0.1,1.6-0.2
				s1-0.4,1.4-0.7c0.4-0.3,0.7-0.8,1-1.3c0.2-0.5,0.4-1.2,0.4-2s-0.1-1.5-0.4-2.1c-0.2-0.6-0.6-1-1-1.4c-0.4-0.3-0.9-0.6-1.4-0.7
				c-0.5-0.1-1.1-0.2-1.6-0.2c-0.2,0-0.5,0-0.7,0s-0.5,0-0.9,0.1L21.9,21.2L21.9,21.2z"/>
			<path fill="#FFFFFF" d="M44.3,21.6c0-0.5-0.1-1-0.3-1.3s-0.4-0.6-0.7-0.8c-0.3-0.2-0.7-0.3-1.2-0.4s-1-0.1-1.5-0.1
				c-1.2,0-2.5,0.2-3.9,0.7c-0.3-0.6-0.5-1.1-0.7-1.6s-0.2-1.1-0.2-1.9c1-0.3,2-0.6,3-0.7c1-0.2,1.9-0.2,2.8-0.2
				c2.3,0,4.2,0.6,5.5,1.7c1.3,1.1,2,2.9,2,5.4v10.1c-0.8,0.2-1.7,0.5-2.9,0.7s-2.4,0.3-3.8,0.3c-1.1,0-2.2-0.1-3.1-0.3
				c-1-0.2-1.8-0.5-2.5-1s-1.2-1.1-1.6-1.8c-0.4-0.7-0.6-1.6-0.6-2.7s0.2-2,0.7-2.7s1.1-1.3,1.8-1.7c0.7-0.4,1.5-0.8,2.4-0.9
				c0.9-0.2,1.8-0.3,2.7-0.3c0.7,0,1.4,0,2.2,0.1v-0.6H44.3z M44.3,25c-0.3,0-0.6-0.1-0.9-0.1c-0.3,0-0.6-0.1-0.8-0.1
				c-1.1,0-2,0.2-2.6,0.6s-1,1-1,1.9c0,0.6,0.1,1,0.4,1.3c0.2,0.3,0.5,0.5,0.9,0.7c0.3,0.1,0.7,0.2,1.1,0.3c0.4,0,0.7,0.1,1,0.1
				s0.7,0,1-0.1s0.6-0.1,0.9-0.2C44.3,29.4,44.3,25,44.3,25z"/>
			<path fill="#FFFFFF" d="M52.5,15.6c0.3-0.1,0.7-0.1,1-0.2c0.3,0,0.6-0.1,1-0.1c0.3,0,0.7,0,1,0.1c0.3,0,0.6,0.1,1,0.2
				c0.1,0.1,0.1,0.3,0.2,0.5c0.1,0.2,0.1,0.4,0.2,0.7c0,0.2,0.1,0.5,0.1,0.7s0.1,0.4,0.1,0.6c0.5-0.7,1.1-1.3,1.8-1.9
				c0.7-0.6,1.6-0.8,2.7-0.8c0.2,0,0.5,0,0.8,0s0.5,0.1,0.6,0.1c0,0.2,0.1,0.5,0.1,0.8s0,0.6,0,0.9c0,0.4,0,0.8-0.1,1.2
				c0,0.4-0.1,0.9-0.2,1.3c-0.2,0-0.5-0.1-0.8-0.1s-0.5,0-0.6,0c-0.4,0-0.8,0-1.3,0.1s-0.9,0.3-1.3,0.6c-0.4,0.3-0.8,0.8-1.1,1.5
				s-0.4,1.6-0.4,2.8V33c-0.4,0.1-0.8,0.1-1.2,0.1s-0.8,0-1.2,0s-0.8,0-1.2,0S52.9,33,52.5,33C52.5,33,52.5,15.6,52.5,15.6z"/>
			<path fill="#FFFFFF" d="M65.8,19.3h-2.2l-0.2-0.7l6.3-8h0.8v5.1h4.1c0.1,0.3,0.1,0.6,0.1,0.9s0,0.5,0,0.8c0,0.3,0,0.6,0,0.9
				s-0.1,0.6-0.1,1h-4.1v6.8c0,0.7,0.1,1.3,0.2,1.7c0.1,0.4,0.3,0.8,0.5,1s0.5,0.4,0.8,0.5s0.7,0.1,1.1,0.1c0.3,0,0.7,0,1-0.1
				s0.6-0.1,0.9-0.2c0.2,0.4,0.3,0.9,0.3,1.3c0.1,0.5,0.1,0.9,0.1,1.2c0,0.2,0,0.5,0,0.6c0,0.2,0,0.3,0,0.5c-1,0.2-2.1,0.4-3.2,0.4
				c-2,0-3.6-0.5-4.7-1.4s-1.6-2.5-1.6-4.7v-7.7H65.8z"/>
			<path fill="#FFFFFF" d="M80.9,25.4c-1.3-0.4-2.2-0.9-2.9-1.6c-0.7-0.7-1.1-1.8-1.1-3.2c0-1.7,0.6-3,1.8-4c1.2-1,2.9-1.4,5-1.4
				c0.9,0,1.7,0.1,2.6,0.2c0.9,0.2,1.7,0.4,2.6,0.7c0,0.6-0.2,1.2-0.3,1.8c-0.2,0.6-0.4,1.2-0.6,1.6c-0.5-0.2-1.1-0.4-1.8-0.6
				s-1.3-0.3-2.1-0.3c-0.8,0-1.4,0.1-1.8,0.4c-0.4,0.2-0.6,0.6-0.6,1.1s0.2,0.8,0.5,1s0.7,0.4,1.3,0.6l1.9,0.6
				c0.6,0.2,1.2,0.4,1.7,0.7c0.5,0.3,0.9,0.6,1.3,1s0.6,0.9,0.8,1.4c0.2,0.6,0.3,1.2,0.3,2.1c0,0.8-0.2,1.6-0.5,2.3
				c-0.3,0.7-0.9,1.3-1.5,1.9c-0.7,0.5-1.5,0.9-2.4,1.2c-0.9,0.3-2,0.5-3.2,0.5c-0.5,0-1,0-1.5,0c-0.4,0-0.9-0.1-1.3-0.2
				c-0.4-0.1-0.8-0.2-1.2-0.3c-0.4-0.1-0.8-0.3-1.3-0.4c0-0.6,0.2-1.2,0.3-1.8c0.2-0.6,0.4-1.2,0.7-1.8c0.7,0.3,1.4,0.5,2.1,0.7
				s1.4,0.2,2.1,0.2c0.3,0,0.7,0,1-0.1s0.7-0.2,1-0.3c0.3-0.1,0.6-0.3,0.8-0.6c0.2-0.2,0.3-0.5,0.3-0.9c0-0.5-0.2-0.9-0.5-1.2
				S83.6,26.2,83,26L80.9,25.4z"/>
		</g>
	</g>
</g>
</svg>
